<svg xmlns="http://www.w3.org/2000/svg" version="1.1" viewBox="6 6 88 88" preserveAspectRatio="xMidYMid meet" role="img" aria-labelledby="title desc">
<title>T2 Fan Control</title>
<desc>fancontrol.svg with orange gear gradient and blue fan gradient.</desc>
<defs>
<linearGradient id="fan-blue" x1="23" y1="22" x2="72" y2="78" gradientUnits="userSpaceOnUse">
<stop offset="0" stop-color="#b9f2ff"/>
<stop offset="0.5" stop-color="#63bdf7"/>
<stop offset="1" stop-color="#1f6fcd"/>
</linearGradient>
<linearGradient id="gear-orange" x1="8" y1="4" x2="93" y2="104" gradientUnits="userSpaceOnUse">
<stop offset="0" stop-color="#ffd27a"/>
<stop offset="0.52" stop-color="#ff9b3d"/>
<stop offset="1" stop-color="#db5f1f"/>
</linearGradient>
</defs>
<path d="m62.398 50.805c6.1055-3.168 9.5586-7.6328 10.559-13.652 0.125-0.75391 0-1.8633-0.57031-2.5273-1.9922-2.3086-3.6953-4.1484-5.3672-5.793-0.625-0.61328-1.2969-1.2031-2.1016-0.98438-0.875 0.23047-1.168 1.2539-1.3789 2.0039-1.0977 3.8398-3.2227 7.1172-6.6445 10.215 0.39062-7.0938-1.7773-12.469-6.625-16.426-0.5625-0.45703-1.5469-0.875-2.3828-0.71094-3.1523 0.62109-5.5547 1.1758-7.7891 1.7969-0.76953 0.21484-1.6133 0.50781-1.8281 1.3125-0.21484 0.80469 0.35938 1.4727 0.96875 2.0898 2.8438 2.8906 4.6875 6.4961 5.6289 11.008-0.050782-0.035157-0.10156-0.074219-0.15234-0.10938-0.11328-0.082032-0.22656-0.16797-0.33984-0.23828-5.8047-3.6602-11.402-4.375-17.117-2.1836-0.67969 0.26172-1.4805 0.86719-1.7422 1.6367-1.0547 3.1172-1.7969 5.5352-2.4062 7.8398-0.11328 0.42578-0.375 1.4219 0.26172 2.0664 0.57422 0.57812 1.4102 0.46484 2.2305 0.25391 4.0703-1.0391 8.1289-0.83594 12.383 0.625-0.027344 0.011718-0.054687 0.023437-0.082031 0.035156-0.12109 0.050781-0.23828 0.10156-0.35156 0.16016-6.0625 3.1758-9.4961 7.6211-10.496 13.578-0.13281 0.78125-0.003907 1.9336 0.58594 2.6211 1.8945 2.1992 3.6523 4.0938 5.3789 5.7852 0.58203 0.57031 1.2695 1.168 2.0742 0.94531 0.875-0.23438 1.1641-1.2617 1.3555-1.9414 1.0859-3.8672 3.2656-7.1602 6.6445-10.027-0.33594 6.9336 1.8203 12.227 6.5898 16.164 0.23047 0.1875 1.0234 0.78516 1.9375 0.78516 0.035156 0 0.070312 0 0.10938-0.003906 2.9531-0.16016 5.8984-0.83594 8.75-2.0117 0.69922-0.28906 1.1133-0.71094 1.2305-1.2578 0.11328-0.53906-0.078126-1.082-0.58203-1.6094l-0.59766-0.62891c-2.6836-2.7852-4.4531-6.3008-5.3945-10.742 0.050781 0.035156 0.10547 0.078125 0.16016 0.11719 0.125 0.09375 0.24609 0.18359 0.37891 0.26562 5.6562 3.5469 11.156 4.2969 16.812 2.3008 0.73438-0.25781 1.7578-0.75391 2.1523-2.043 0.21875-0.71094 0.44141-1.418 0.66406-2.125 0.54297-1.7227 1.1094-3.5078 1.5742-5.2969 0.21094-0.80859 0.32812-1.6367-0.24219-2.2109-0.65234-0.65625-1.707-0.38672-2.2773-0.24609-4.0273 1.0195-8.0781 0.80469-12.355-0.64453 0.027344-0.011719 0.054688-0.023438 0.082032-0.03125 0.10156-0.0625 0.21094-0.10938 0.3125-0.16016zm-2.3789 1.0625c0.0625 0.046874 0.12109 0.10547 0.17969 0.16016 0.21094 0.19922 0.47266 0.44531 0.85547 0.58203 4.6992 1.6562 9.3281 1.9297 13.754 0.80859 0.13672-0.035157 0.24609-0.058594 0.33984-0.078125-0.015626 0.078125-0.039063 0.16797-0.066407 0.27734-0.45312 1.7422-1.0078 3.5039-1.5469 5.207-0.22656 0.71484-0.44922 1.4258-0.66797 2.1406-0.10547 0.34766-0.30469 0.59766-1 0.84375-5.0898 1.7969-10.066 1.1016-15.215-2.125-0.085938-0.054688-0.17188-0.11719-0.25391-0.17969-0.22266-0.16797-0.47656-0.35547-0.80469-0.48047-0.36328-0.14063-1.0703-0.33203-1.6719-0.046876-0.78516 0.36719-0.75391 1.4922-0.67969 1.8555 0.99219 4.9883 2.9414 8.9375 5.957 12.062l0.50781 0.53125c-2.6367 1.0781-5.3555 1.6992-8.0742 1.8477-0.125 0.015624-0.47656-0.11719-0.76953-0.35938-4.3789-3.6211-6.3086-8.5508-5.8945-15.074 0.027344-0.45312-0.082031-0.85938-0.17578-1.2148-0.035157-0.12109-0.066407-0.24609-0.089844-0.36719-0.0625-0.3125-0.28125-0.57031-0.57812-0.68359-0.10547-0.039063-0.21875-0.058594-0.32812-0.058594-0.19922 0-0.39453 0.0625-0.55859 0.1875-4.4336 3.3516-7.2344 7.2773-8.5625 12.004-0.046875 0.16406-0.085937 0.29297-0.12109 0.39844-0.066407-0.058594-0.14453-0.13281-0.23438-0.21875-1.6914-1.6602-3.4141-3.5117-5.2734-5.6719-0.11719-0.13672-0.23828-0.66406-0.16406-1.1094 0.89844-5.3516 4.0156-9.3555 9.5312-12.246 0.070313-0.035156 0.14063-0.066406 0.21484-0.097656 0.20703-0.085938 0.46094-0.19531 0.69922-0.39062 0.25391-0.20312 0.44141-0.4375 0.60938-0.64453 0.054688-0.070312 0.10938-0.13672 0.16797-0.20312 0.16406-0.1875 0.24609-0.43359 0.22266-0.68359-0.019531-0.25-0.14062-0.47656-0.33203-0.63672-0.066406-0.054687-0.12891-0.11719-0.19141-0.17969-0.22266-0.21875-0.5-0.49219-0.90625-0.63672-4.6641-1.6602-9.293-1.9219-13.758-0.77734-0.10547 0.027344-0.19531 0.046875-0.27344 0.0625 0.007812-0.035156 0.019531-0.078125 0.03125-0.12109 0.59766-2.2617 1.3281-4.6445 2.3711-7.7188 0.046875-0.12109 0.35156-0.39062 0.65234-0.50781 5.1289-1.9688 10.188-1.3047 15.469 2.0234 0.078125 0.046875 0.14844 0.10547 0.22266 0.16016 0.19531 0.14453 0.4375 0.32422 0.73828 0.44141 0.57422 0.22656 1.2383 0.40625 1.7891 0.050781 0.63281-0.41406 0.71094-1.3672 0.61328-1.8711-0.98828-5.0469-3.0156-9.0703-6.1992-12.305-0.09375-0.09375-0.17188-0.17578-0.23438-0.24609 0.074219-0.023437 0.16406-0.050781 0.26563-0.078125 2.1875-0.60938 4.5469-1.1523 7.6562-1.7656 0.13281-0.03125 0.56641 0.09375 0.85547 0.33203 4.4141 3.6055 6.3555 8.5625 5.9336 15.152-0.03125 0.45703 0.10156 0.86328 0.22656 1.2578 0.050782 0.16016 0.10938 0.33594 0.15625 0.53125 0.078126 0.30859 0.30859 0.55469 0.60938 0.65234 0.30078 0.097656 0.63281 0.035156 0.87891-0.16406 4.4141-3.6445 7.0859-7.5039 8.4102-12.141 0.054688-0.19141 0.10156-0.33984 0.14062-0.45703 0.074219 0.066406 0.16016 0.14844 0.26562 0.25391 1.6328 1.6094 3.3086 3.418 5.2656 5.6836 0.10547 0.12109 0.21484 0.61328 0.14844 1.0156-0.89844 5.4062-4.0352 9.4336-9.5859 12.316-0.054687 0.027343-0.10938 0.050781-0.16406 0.070312-0.19141 0.078125-0.45703 0.1875-0.69141 0.39844-0.24609 0.21875-0.44141 0.46484-0.61328 0.67969-0.0625 0.078125-0.125 0.15625-0.1875 0.23047-0.16016 0.19141-0.23828 0.44141-0.21484 0.6875 0.023438 0.24609 0.14844 0.47656 0.34375 0.63281zm-10.039-9.0156h-0.015625c-3.8438 0.007813-7.1094 3.2461-7.1289 7.0664-0.011719 1.8672 0.76953 3.7227 2.1406 5.0977 1.3516 1.3555 3.1758 2.1289 5.0078 2.1289h0.027344c3.8594-0.015625 7.1367-3.2539 7.1523-7.0703 0.007813-1.9375-0.73437-3.7539-2.0938-5.1172-1.3555-1.3594-3.1602-2.1055-5.0898-2.1055zm0.023437 12.445h-0.019531c-1.3438 0-2.6914-0.57812-3.6992-1.5898-1.0234-1.0273-1.6094-2.4023-1.6016-3.7773 0.015625-2.8281 2.4336-5.2227 5.2852-5.2305h0.011719c1.4336 0 2.7734 0.55469 3.7812 1.5625 1.0078 1.0117 1.5625 2.3633 1.5547 3.8047-0.011718 2.7773-2.4961 5.2227-5.3125 5.2305z" fill="url(#fan-blue)"/>
<path d="m91.309 52.984c0.078125-1.0742 0.11719-2.0547 0.11719-2.9844s-0.039062-1.9102-0.11719-2.9844l3.0156-3.2305c0.21094-0.22656 0.29297-0.53906 0.22656-0.83594l-1.3516-5.9219c-0.070313-0.29688-0.28125-0.54297-0.56641-0.65625l-4.1055-1.5977c-0.73438-1.8555-1.6094-3.668-2.6016-5.3945l1.3125-4.207c0.089844-0.29297 0.03125-0.61328-0.16016-0.85156l-3.7891-4.75c-0.19141-0.23828-0.48828-0.36719-0.79297-0.34766l-4.4062 0.34375c-1.4844-1.3711-3.0508-2.625-4.6719-3.7383l-0.64453-4.3555c-0.042969-0.30469-0.23828-0.5625-0.51172-0.69922l-5.4727-2.6367c-0.27734-0.13281-0.60156-0.12109-0.86719 0.035156l-3.8008 2.2109c-1.8984-0.57812-3.8594-1.0234-5.8477-1.3242l-2.4688-3.6523c-0.17188-0.25391-0.46094-0.40625-0.76563-0.40625h-6.0742c-0.30469 0-0.59375 0.15234-0.76562 0.40625l-2.4727 3.6484c-1.9883 0.30078-3.9492 0.74609-5.8477 1.3242l-3.8008-2.207c-0.26562-0.15625-0.58984-0.16406-0.86719-0.035156l-5.4727 2.6367c-0.27734 0.13281-0.46875 0.39453-0.51172 0.69922l-0.64453 4.3555c-1.6211 1.1133-3.1875 2.3672-4.6719 3.7383l-4.4062-0.34375c-0.30469-0.019531-0.60156 0.10547-0.79297 0.34766l-3.7891 4.75c-0.19141 0.23828-0.25 0.55859-0.16016 0.85156l1.3125 4.207c-0.99609 1.7305-1.8672 3.5391-2.6016 5.3945l-4.1055 1.5977c-0.28516 0.10938-0.49609 0.35547-0.56641 0.65625l-1.3516 5.9219c-0.066407 0.29688 0.015625 0.61328 0.22656 0.83594l3.0156 3.2305c-0.078125 1.0781-0.11719 2.0586-0.11719 2.9844s0.039062 1.9062 0.11719 2.9844l-3.0117 3.2305c-0.21094 0.22656-0.29297 0.53906-0.22656 0.83594l1.3516 5.9219c0.070312 0.29688 0.28125 0.54297 0.56641 0.65625l4.1055 1.5977c0.73438 1.8516 1.6055 3.6641 2.6016 5.3945l-1.3125 4.207c-0.089844 0.29297-0.03125 0.61328 0.16016 0.85156l3.7891 4.75c0.19141 0.23828 0.48828 0.37109 0.79297 0.34766l4.4062-0.34375c1.4844 1.3711 3.0508 2.625 4.6719 3.7383l0.64453 4.3555c0.042969 0.30469 0.23828 0.5625 0.51172 0.69922l5.4727 2.6367c0.27734 0.13281 0.60156 0.12109 0.86719-0.035156l3.8008-2.2109c1.8984 0.57812 3.8594 1.0234 5.8477 1.3242l2.4727 3.6484c0.16406 0.25781 0.45312 0.41016 0.75781 0.41016h6.0742c0.30469 0 0.59375-0.15234 0.76562-0.40625l2.4727-3.6484c1.9883-0.30078 3.9492-0.74609 5.8477-1.3242l3.8008 2.2109c0.26562 0.15625 0.58984 0.16797 0.86719 0.035157l5.4727-2.6367c0.27734-0.13281 0.46875-0.39453 0.51172-0.69922l0.64453-4.3555c1.6172-1.1133 3.1875-2.3672 4.6719-3.7383l4.4062 0.34375c0.30469 0.023438 0.60156-0.10547 0.79297-0.34766l3.7891-4.75c0.19141-0.23828 0.25-0.55859 0.16016-0.85156l-1.3125-4.207c0.99219-1.7305 1.8672-3.5391 2.6016-5.3945l4.1055-1.5977c0.28516-0.10937 0.49609-0.35547 0.56641-0.65625l1.3516-5.9219c0.066407-0.29688-0.015625-0.61328-0.22656-0.83594zm0.19531 9.1016-4.0273 1.5664c-0.24219 0.09375-0.43359 0.28516-0.52734 0.53125-0.77734 2.0195-1.7266 3.9922-2.8242 5.8594-0.13281 0.22656-0.16406 0.49609-0.085938 0.74219l1.2852 4.1289-3.1758 3.9844-4.3203-0.33594c-0.25781-0.019531-0.51562 0.070312-0.70703 0.25-1.6016 1.5078-3.3086 2.875-5.0742 4.0625-0.21484 0.14453-0.35938 0.375-0.39844 0.63281l-0.62891 4.2734-4.5898 2.2109-3.7266-2.168c-0.22656-0.13281-0.49609-0.16016-0.74219-0.082031-2.0508 0.64844-4.1836 1.1328-6.3477 1.4375-0.25781 0.035156-0.48828 0.17969-0.63672 0.39844l-2.4258 3.582h-5.0938l-2.4258-3.582c-0.14844-0.21484-0.37891-0.35938-0.63672-0.39844-2.1641-0.30469-4.2969-0.78906-6.3477-1.4375-0.24609-0.078126-0.51953-0.050782-0.74219 0.082031l-3.7266 2.168-4.5898-2.2109-0.63281-4.2734c-0.039063-0.25781-0.18359-0.48828-0.39844-0.63281-1.7656-1.1875-3.4727-2.5547-5.0742-4.0625-0.19141-0.17969-0.44922-0.26562-0.70703-0.25l-4.3203 0.33594-3.1758-3.9844 1.2852-4.1289c0.078125-0.25 0.046875-0.51953-0.085938-0.74219-1.0977-1.8672-2.0508-3.8398-2.8242-5.8594-0.09375-0.24219-0.28516-0.4375-0.52734-0.53125l-4.0273-1.5664-1.1328-4.9648 2.957-3.168c0.17578-0.19141 0.26562-0.44531 0.24609-0.70703-0.097656-1.1914-0.14844-2.2539-0.14844-3.2461s0.046875-2.0547 0.14453-3.2461c0.019532-0.25781-0.066406-0.51562-0.24609-0.70703l-2.957-3.168 1.1328-4.9648 4.0273-1.5664c0.24219-0.09375 0.43359-0.28516 0.52734-0.53125 0.77734-2.0195 1.7266-3.9922 2.8242-5.8594 0.13281-0.22656 0.16406-0.49609 0.085938-0.74219l-1.2852-4.1289 3.1758-3.9844 4.3203 0.33594c0.25391 0.015625 0.51562-0.070312 0.70703-0.25 1.6016-1.5078 3.3086-2.875 5.0742-4.0625 0.21484-0.14453 0.35938-0.375 0.39844-0.63281l0.63281-4.2734 4.5898-2.2109 3.7266 2.168c0.22656 0.13281 0.49609 0.16016 0.74219 0.082031 2.0508-0.64844 4.1836-1.1328 6.3477-1.4375 0.25781-0.035156 0.48828-0.17969 0.63672-0.39844l2.4258-3.582h5.0938l2.4258 3.582c0.14844 0.21484 0.37891 0.35938 0.63672 0.39844 2.1641 0.30469 4.2969 0.78906 6.3477 1.4375 0.25 0.078126 0.51953 0.050782 0.74219-0.082031l3.7266-2.168 4.5898 2.2109 0.62891 4.2734c0.039063 0.25781 0.18359 0.48828 0.39844 0.63281 1.7656 1.1875 3.4766 2.5547 5.0742 4.0625 0.19141 0.17969 0.44531 0.26562 0.70703 0.25l4.3203-0.33594 3.1758 3.9844-1.2852 4.1289c-0.078125 0.25-0.046875 0.51953 0.085938 0.74219 1.0977 1.8633 2.0469 3.8359 2.8242 5.8594 0.09375 0.24219 0.28516 0.4375 0.52734 0.53125l4.0273 1.5664 1.1328 4.9648-2.957 3.168c-0.17578 0.19141-0.26562 0.44531-0.24609 0.70703 0.097656 1.1914 0.14453 2.25 0.14453 3.2461s-0.046875 2.0547-0.14453 3.2461c-0.019532 0.25781 0.066406 0.51562 0.24609 0.70703l2.957 3.168zm-41.504-46.445c-18.941 0-34.348 15.41-34.348 34.348 0 18.941 15.406 34.348 34.348 34.348s34.348-15.41 34.348-34.348c0-18.941-15.406-34.348-34.348-34.348zm0 66.848c-17.922 0-32.5-14.578-32.5-32.5s14.578-32.5 32.5-32.5 32.5 14.578 32.5 32.5-14.578 32.5-32.5 32.5z" fill="url(#gear-orange)"/>
</svg>
